<?xml version="1.0" encoding="UTF-8"?>
<svg id="Layer_1" xmlns="http://www.w3.org/2000/svg" version="1.1" viewBox="0 0 841.89 595.28">
  <!-- Generator: Adobe Illustrator 29.8.2, SVG Export Plug-In . SVG Version: 2.1.1 Build 3)  -->
  <defs>
    <style>
      .st0 {
        fill: #fff;
      }

      .st0, .st1 {
        fill-rule: evenodd;
      }

      .st1 {
        fill: #981b1e;
      }
    </style>
  </defs>
  <path id="fundo" class="st1" d="M307.14,186.9h-52.8c-23.33,1.1-42.4,10.5-47.9,29.87-2.87,10.11-4.45,21.2-6.7,31.68-11.41,53.26-21.53,107.99-32.45,160.19h411.04c31.78,0,53.6-6.71,59.49-31.94,2.74-11.72,5.36-24.99,7.98-37.86,10.22-50.19,20.44-100.37,30.91-151.95h-369.57Z"/>
  <path id="hipercard" class="st0" d="M303.02,265.71c2.21-1.52,5.05-8.45,1.8-11.33-1.03-.91-2.75-1.18-5.15-.77-2.23.38-3.51,1.13-4.38,2.32-1.4,1.91-2.68,7.65-.52,9.79,2.11,2.08,6.84.97,8.24,0ZM271.6,254.38c-1.58,10.27-3.36,20.33-5.15,30.39-11.47.12-23.19.57-34.25-.26,2.09-9.84,3.59-20.28,5.67-30.13h-12.36c-4.43,25.11-8.45,50.61-13.39,75.2h12.62c1.98-12.61,3.83-25.36,6.44-37.34,10.76-.27,23.66-.73,34,.26-2.13,12.46-4.71,24.48-6.7,37.09h12.62c4.05-25.48,8.33-50.74,13.39-75.2h-12.88ZM450.07,276.01c-9.82-3.97-17.54,2.74-21.12,9.01.81-2.79,1.15-6.06,1.8-9.01h-9.79c-2.39,18.55-5.92,35.98-9.27,53.57h11.08c1.55-10.44,2.22-24.52,5.67-34.51,2.75-7.98,9.95-14.78,20.35-11.07.15-2.94.99-5.19,1.29-7.98ZM456.25,316.96c-1.02-2.64-1.29-6.99-1.03-10.3.57-7.44,3.28-16.5,7.47-20.6,5.78-5.66,17.18-4.72,26.27-1.55.28-3.07.9-5.8,1.29-8.76-14.91-2.44-29.07-.92-36.57,6.95-7.35,7.71-12.16,25.42-8.76,36.57,3.98,13.04,21.85,13.75,36.31,8.76.64-2.62.98-5.54,1.54-8.24-7.9,4.11-23.01,6.24-26.53-2.83ZM580.65,276.27c-9.79-4.89-17.94,3.32-21.12,8.24.91-2.53.96-5.91,1.8-8.5h-9.79c-2.64,18.39-5.82,36.25-9.53,53.57h11.33c.07-7.1,1.47-12.35,2.58-19.32,2.37-14.87,5.84-31.17,23.18-26.27.58-2.52.81-5.37,1.54-7.73ZM291.68,276.01c-.3.04-.28.41-.26.77-2.44,18.25-5.74,35.64-9.27,52.8h11.07c2.66-18.37,5.71-36.36,9.53-53.57h-11.07ZM389.03,274.98c-8,.62-14.77,2.92-19.57,7.98-5.9,6.21-10.67,19.94-9.27,32.45,2,17.84,24.21,17.2,41.98,12.88.3-3.13,1.06-5.81,1.55-8.76-7.32,2.74-20.03,6.56-27.56,1.8-5.68-3.59-5.72-12.69-3.86-20.6,11.94-.38,24.35-.31,36.31,0,.76-5.61,2.93-11.72,1.03-17.26-2.51-7.31-11.48-9.2-20.6-8.5ZM399.59,294.56h-26.01c.82-5.98,6.2-12.55,14.68-12.88,7.98-.31,13.69,2.93,11.33,12.88ZM347.06,276.01c-9.37-3.52-20.8.68-25.75,4.68.02.18-.12.2-.26.21.08-.07.18-.14.26-.21,0-.01,0-.03,0-.04.08-1.72.69-2.92.77-4.64h-9.53c-3.97,26.42-8.68,52.1-13.65,77.52h11.07c1.6-9.9,2.66-20.34,4.89-29.62,2.53,9.75,19.04,7.89,26.01,4.12,14.38-7.77,25.47-44.78,6.18-52.02ZM338.3,319.54c-5.92,6.28-20.49,6.18-21.63-4.38-.5-4.59,1.21-9.41,2.06-14.16.86-4.81,1.47-9.43,2.32-13.65,5.84-7.13,22.98-7.99,24.72,3.86,1.51,10.29-2.56,23.13-7.47,28.33ZM621.85,252.83c-.95,8.32-2.22,16.33-3.86,23.95-27.16-8.6-43.82,11.39-43.53,36.06.06,4.77.88,9.5,3.86,12.88,5.14,5.82,19.87,7.21,27.3,2.32,1.44-.95,2.91-2.67,3.86-3.86.72-.9,1.85-3.25,2.06-2.58-.39,2.61-.97,5.04-1.03,7.98h10.04c1.94-27.77,7.92-51.49,12.36-76.75h-11.08ZM597.13,323.66c-7.46.16-11.16-4.45-11.33-12.1-.3-13.4,5.58-28.28,17.51-29.62,5.56-.62,9.58.67,13.65,2.06-3.74,15.05-2.39,39.29-19.83,39.66ZM501.58,276.01c-.54,3.06-1.38,5.83-2.06,8.76,6.54-1.64,26.88-6.66,28.84,2.06.65,2.9-.47,5.98-1.29,8.24-18.4-1.74-33.4,1.31-37.34,14.42-2.64,8.78.3,17.42,5.92,19.83,10.84,4.64,24.02-.68,28.59-7.98-.47,2.53-.92,5.09-.77,8.24h9.53c.1-9.13,1.43-16.51,2.83-24.72,1.2-6.99,3.45-13.92,3.09-20.09-.82-14.14-24.24-9.13-37.34-8.76ZM519.61,319.28c-5.71,5.59-21.73,7.17-20.09-6.18,1.36-11.09,13.44-13.45,26.53-11.85-.97,6.07-2.09,13.77-6.44,18.03Z"/>
</svg>